<svg width="64" height="64" viewBox="0 0 64 64" fill="none" xmlns="http://www.w3.org/2000/svg">
<path d="M22.6667 5.33337C20.5449 5.33337 18.5101 6.17623 17.0098 7.67652C15.5095 9.17681 14.6667 11.2116 14.6667 13.3334C14.6667 15.4551 15.5095 17.4899 17.0098 18.9902C18.5101 20.4905 20.5449 21.3334 22.6667 21.3334H41.3333C43.4551 21.3334 45.4899 20.4905 46.9902 18.9902C48.4905 17.4899 49.3333 15.4551 49.3333 13.3334C49.3333 11.2116 48.4905 9.17681 46.9902 7.67652C45.4899 6.17623 43.4551 5.33337 41.3333 5.33337H22.6667ZM41.3333 24C39.2116 24 37.1768 24.8429 35.6765 26.3432C34.1762 27.8435 33.3333 29.8783 33.3333 32C33.3333 34.1218 34.1762 36.1566 35.6765 37.6569C37.1768 39.1572 39.2116 40 41.3333 40C43.4551 40 45.4899 39.1572 46.9902 37.6569C48.4905 36.1566 49.3333 34.1218 49.3333 32C49.3333 29.8783 48.4905 27.8435 46.9902 26.3432C45.4899 24.8429 43.4551 24 41.3333 24ZM14.6667 32C14.6667 29.8783 15.5095 27.8435 17.0098 26.3432C18.5101 24.8429 20.5449 24 22.6667 24H30.6667V40H22.6667C20.5449 40 18.5101 39.1572 17.0098 37.6569C15.5095 36.1566 14.6667 34.1218 14.6667 32ZM22.6667 42.6667C21.0844 42.6667 19.5377 43.1359 18.2221 44.0149C16.9065 44.894 15.8811 46.1434 15.2756 47.6052C14.6701 49.0671 14.5117 50.6756 14.8204 52.2274C15.1291 53.7793 15.891 55.2047 17.0098 56.3236C18.1286 57.4424 19.5541 58.2043 21.1059 58.513C22.6578 58.8217 24.2663 58.6632 25.7281 58.0577C27.1899 57.4522 28.4394 56.4269 29.3184 55.1113C30.1975 53.7957 30.6667 52.249 30.6667 50.6667V42.6667H22.6667Z" fill="white"/>
</svg>
