<svg width="64" height="64" viewBox="0 0 64 64" fill="none" xmlns="http://www.w3.org/2000/svg">
<path fill-rule="evenodd" clip-rule="evenodd" d="M32 2C15.4315 2 2 15.4315 2 32C2 48.5685 15.4315 62 32 62C48.5685 62 62 48.5685 62 32C62 15.4315 48.5685 2 32 2ZM16.591 52.282C17.503 53.182 18.733 53.632 20.281 53.632H22.729V49.564H20.587C20.239 49.564 19.939 49.438 19.687 49.186C19.447 48.946 19.327 48.652 19.327 48.304V37.774C19.327 36.67 19.003 35.65 18.355 34.714L17.581 33.67L18.355 32.626C19.003 31.702 19.327 30.682 19.327 29.566V19.054C19.327 18.706 19.447 18.412 19.687 18.172C19.939 17.92 20.239 17.794 20.587 17.794H22.729V13.708H20.281C18.733 13.708 17.503 14.164 16.591 15.076C15.691 15.976 15.241 17.2 15.241 18.748V29.566C15.241 29.782 15.169 30.01 15.025 30.25L13.423 32.518C13.195 32.866 13.081 33.25 13.081 33.67C13.081 34.09 13.195 34.474 13.423 34.822L15.025 37.09C15.169 37.282 15.241 37.51 15.241 37.774V48.592C15.241 50.152 15.691 51.382 16.591 52.282ZM37.6409 20.08H33.2849L26.3729 46H30.7289L37.6409 20.08ZM41.2631 53.632H43.7111C45.2591 53.632 46.4831 53.182 47.3831 52.282C48.2951 51.382 48.7511 50.152 48.7511 48.592V37.774C48.7511 37.51 48.8231 37.282 48.9671 37.09L50.5691 34.822C50.8091 34.474 50.9291 34.09 50.9291 33.67C50.9291 33.25 50.8091 32.866 50.5691 32.518L48.9671 30.25C48.8231 30.01 48.7511 29.782 48.7511 29.566V18.748C48.7511 17.2 48.2951 15.976 47.3831 15.076C46.4831 14.164 45.2591 13.708 43.7111 13.708H41.2631V17.794H43.4051C43.7531 17.794 44.0471 17.92 44.2871 18.172C44.5391 18.412 44.6651 18.706 44.6651 19.054V29.566C44.6651 30.682 44.9891 31.702 45.6371 32.626L46.4111 33.67L45.6371 34.714C44.9891 35.65 44.6651 36.67 44.6651 37.774V48.304C44.6651 48.652 44.5391 48.946 44.2871 49.186C44.0471 49.438 43.7531 49.564 43.4051 49.564H41.2631V53.632Z" fill="white"/>
</svg>
