<svg width="64" height="64" viewBox="0 0 64 64" fill="none" xmlns="http://www.w3.org/2000/svg">
<g clip-path="url(#clip0_79_21)">
<path d="M32 27.7493C30.8727 27.7493 29.7915 28.1972 28.9943 28.9943C28.1972 29.7915 27.7493 30.8727 27.7493 32C27.7493 33.1273 28.1972 34.2085 28.9943 35.0057C29.7915 35.8028 30.8727 36.2507 32 36.2507C33.1273 36.2507 34.2085 35.8028 35.0057 35.0057C35.8028 34.2085 36.2507 33.1273 36.2507 32C36.2507 30.8727 35.8028 29.7915 35.0057 28.9943C34.2085 28.1972 33.1273 27.7493 32 27.7493ZM46.664 16.2027C47.2391 16.1888 47.814 16.2371 48.3787 16.3467C48.8263 16.4331 49.258 16.5877 49.6587 16.8053C49.9507 16.968 50.2124 17.18 50.432 17.432C50.6451 17.6804 50.8121 17.9649 50.9253 18.272C51.0634 18.6594 51.1391 19.0662 51.1493 19.4773C51.168 19.9973 51.1093 20.5387 50.9947 21.0853C50.8404 21.795 50.6227 22.4894 50.344 23.16C49.9787 24.0507 49.5333 24.92 49.0373 25.768C48.384 26.88 47.6507 27.9493 46.8587 28.9867C46.472 29.496 46.0587 29.9893 45.6453 30.4827C45.0587 29.848 44.464 29.224 43.8507 28.616C42.1223 26.9147 40.297 25.3147 38.384 23.824L38.336 23.7867L37.1067 25.3653L37.1547 25.4027C39.0061 26.8462 40.7726 28.3954 42.4453 30.0427C43.088 30.6747 43.712 31.3227 44.32 31.9893C44.056 32.2773 43.8027 32.576 43.5307 32.8587C43.2667 33.136 42.9973 33.4107 42.728 33.68L44.1413 35.0933C44.424 34.8133 44.7013 34.528 44.976 34.24C45.2027 34.0053 45.4133 33.7547 45.6373 33.5147C45.8107 33.7227 45.9973 33.92 46.1653 34.1307C47.0382 35.2043 47.8476 36.328 48.5893 37.496C49.152 38.392 49.6667 39.312 50.0933 40.2587C50.4122 40.9525 50.6735 41.6714 50.8747 42.408C51.0257 42.9629 51.1169 43.5324 51.1467 44.1067C51.168 44.5813 51.128 45.0427 51.0133 45.4613C50.9266 45.7836 50.7849 46.0885 50.5947 46.3627C50.4071 46.6306 50.1695 46.862 49.8987 47.0453C49.5562 47.2726 49.18 47.4445 48.784 47.5547C48.2827 47.6987 47.744 47.7707 47.184 47.7947C46.4747 47.8213 45.7493 47.768 45.0133 47.6613C44.0509 47.5182 43.1 47.3061 42.168 47.0267C40.9307 46.6613 39.7147 46.208 38.5173 45.6933H38.5147C36.9543 45.012 35.432 44.2464 33.9547 43.4L33.888 43.36C35.4316 42.3635 36.9316 41.3012 38.384 40.176L37.824 39.456L38.3867 40.176L38.4347 40.136L37.2 38.5627L37.1547 38.6C35.3054 40.0466 33.3752 41.3866 31.3733 42.6133C29.7996 43.5774 28.173 44.4526 26.5013 45.2347C25.2486 45.8208 23.9629 46.3336 22.6507 46.7707C21.6546 47.1025 20.6372 47.3663 19.6053 47.56C18.855 47.7026 18.0942 47.7829 17.3307 47.8C16.7555 47.8128 16.1806 47.7636 15.616 47.6533C15.1682 47.5674 14.7365 47.4126 14.336 47.1947C13.7495 46.8773 13.299 46.3567 13.0693 45.7307C12.9313 45.3424 12.8557 44.9346 12.8453 44.5227C12.8326 43.9824 12.8845 43.4426 13 42.9147C13.1467 42.2187 13.3733 41.528 13.6533 40.8427C14.0265 39.9435 14.4632 39.0719 14.96 38.2347C15.9458 36.5653 17.0802 34.9882 18.3493 33.5227C18.968 34.192 19.6 34.848 20.248 35.488C21.953 37.1576 23.7515 38.729 25.6347 40.1947L26.864 38.6187C25.0414 37.1994 23.3008 35.6778 21.6507 34.0613C20.9733 33.3947 20.3147 32.712 19.6747 32.0107C19.9387 31.7227 20.1947 31.4267 20.4613 31.144C20.7342 30.8596 21.0098 30.5778 21.288 30.2987L19.8747 28.8853C19.5867 29.1733 19.3013 29.4667 19.0187 29.76C18.792 29.9973 18.5787 30.248 18.3573 30.488C18.2107 30.312 18.0533 30.1467 17.9067 29.968C17.0295 28.8923 16.214 27.7679 15.464 26.6C14.8941 25.7112 14.3854 24.7846 13.9413 23.8267C13.6047 23.1064 13.3299 22.3588 13.12 21.592C12.9671 21.0375 12.8759 20.4678 12.848 19.8933C12.823 19.4385 12.868 18.9825 12.9813 18.5413C13.072 18.2107 13.2133 17.904 13.4 17.6373C13.5813 17.376 13.824 17.1413 14.096 16.9547C14.439 16.7272 14.8162 16.5562 15.2133 16.448C15.7339 16.3025 16.2704 16.2219 16.8107 16.208C17.5366 16.1855 18.2631 16.2284 18.9813 16.336C19.9437 16.4817 20.8946 16.6956 21.8267 16.976C23.0693 17.3466 24.2884 17.7919 25.4773 18.3093C27.063 18.9986 28.6086 19.7767 30.1067 20.64C28.5553 21.6428 27.0482 22.7122 25.5893 23.8453L26.8213 25.4187C28.639 23.9941 30.5353 22.6729 32.5013 21.4613C34.0777 20.4914 35.7069 19.61 37.3813 18.8213C38.6453 18.2293 39.9307 17.7013 41.2427 17.2667C42.2421 16.9291 43.263 16.6591 44.2987 16.4587C45.0933 16.3093 45.8853 16.2133 46.664 16.2027ZM46.6373 14.2027C45.7295 14.2224 44.8223 14.3188 43.9307 14.4907C42.8055 14.708 41.6963 15.0012 40.6107 15.368C39.2209 15.8362 37.8595 16.3846 36.5333 17.0107C34.9787 17.736 33.4773 18.5627 32.0107 19.4373C30.1664 18.3214 28.2492 17.3308 26.272 16.472C25.0087 15.9214 23.713 15.4485 22.392 15.056C21.3681 14.7492 20.3237 14.5157 19.2667 14.3573C18.4284 14.2316 17.5805 14.1825 16.7333 14.2107C16.056 14.2373 15.3573 14.3253 14.664 14.5227C14.0605 14.6918 13.4879 14.9565 12.968 15.3067C12.0257 15.9482 11.3467 16.9084 11.056 18.0107C10.8861 18.6512 10.8168 19.3142 10.8507 19.976C10.8861 20.6955 10.9997 21.409 11.1893 22.104C11.4283 22.9814 11.7414 23.837 12.1253 24.6613C12.6082 25.7001 13.1605 26.705 13.7787 27.6693C14.5686 28.9049 15.4296 30.0936 16.3573 31.2293C16.5707 31.4907 16.8 31.736 17.0187 31.992C16.5113 32.5818 16.0204 33.1856 15.5467 33.8027C14.7173 34.8907 13.936 36.0267 13.2347 37.2213C12.6889 38.1416 12.2095 39.0996 11.8 40.088C11.4761 40.8708 11.2235 41.6812 11.0453 42.5093C10.8948 43.1938 10.8294 43.8942 10.8507 44.5947C10.8667 45.2209 10.9838 45.8404 11.1973 46.4293V46.432C11.5923 47.5002 12.3592 48.3902 13.3573 48.9387C13.9382 49.2584 14.5653 49.486 15.216 49.6133C15.9226 49.7538 16.6424 49.8164 17.3627 49.8C18.2371 49.7811 19.1085 49.6901 19.968 49.528L19.9707 49.5253C21.091 49.3163 22.1958 49.0312 23.2773 48.672C24.664 48.2086 26.0227 47.6655 27.3467 47.0453C28.9371 46.2998 30.4876 45.472 31.992 44.5653C32.3147 44.7573 32.64 44.9493 32.968 45.136C34.5091 46.0218 36.0982 46.8212 37.728 47.5307C38.9917 48.0795 40.2874 48.5514 41.608 48.944C42.6213 49.2427 43.6667 49.488 44.7333 49.6427C45.5716 49.7685 46.4194 49.8185 47.2667 49.792C47.944 49.7653 48.6427 49.6747 49.336 49.4773C49.9173 49.3093 50.4987 49.0613 51.032 48.6933C51.9741 48.0516 52.6531 47.0915 52.944 45.9893C53.1253 45.328 53.176 44.664 53.1493 44.0267C53.1142 43.3063 53.0006 42.5918 52.8107 41.896C52.5819 41.0521 52.2831 40.2288 51.9173 39.4347C51.4408 38.3977 50.8956 37.3937 50.2853 36.4293C49.5008 35.197 48.647 34.0103 47.728 32.8747C47.488 32.5787 47.2267 32.2987 46.9813 32.0107C47.4853 31.4187 47.9787 30.8187 48.4533 30.2C49.2827 29.1093 50.064 27.9733 50.7653 26.7787C51.3111 25.8584 51.7905 24.9004 52.2 23.912C52.5238 23.1301 52.7763 22.3206 52.9547 21.4933C53.096 20.8267 53.176 20.1253 53.1493 19.4053C53.1345 18.779 53.0174 18.1592 52.8027 17.5707V17.568C52.4077 16.4998 51.6408 15.6098 50.6427 15.0613C50.0618 14.742 49.4347 14.5153 48.784 14.3893C48.0774 14.2489 47.3576 14.1863 46.6373 14.2027ZM32 0L59.712 16V48L32 64L4.28533 48V16L32 0Z" fill="white"/>
</g>
<defs>
<clipPath id="clip0_79_21">
<rect width="64" height="64" fill="white"/>
</clipPath>
</defs>
</svg>
