<svg width="64" height="64" viewBox="0 0 64 64" fill="none" xmlns="http://www.w3.org/2000/svg">
<path fill-rule="evenodd" clip-rule="evenodd" d="M8 2C4.68629 2 2 4.68629 2 8V56C2 59.3137 4.68629 62 8 62H56C59.3137 62 62 59.3137 62 56V8C62 4.68629 59.3137 2 56 2H8ZM22.748 32.148V54H27.086V32.148H35.474V28.08H14.36V32.148H22.748ZM42.816 53.55C44.34 54.21 46.05 54.54 47.946 54.54C49.278 54.54 50.55 54.372 51.762 54.036C52.986 53.7 54.072 53.196 55.02 52.524C55.968 51.852 56.718 51.012 57.27 50.004C57.834 48.984 58.116 47.802 58.116 46.458C58.116 45.162 57.876 44.094 57.396 43.254C56.928 42.414 56.328 41.736 55.596 41.22C54.864 40.704 54.102 40.302 53.31 40.014C52.518 39.726 51.804 39.498 51.168 39.33L46.524 38.034C45.936 37.878 45.354 37.686 44.778 37.458C44.214 37.218 43.74 36.9 43.356 36.504C42.972 36.096 42.78 35.574 42.78 34.938C42.78 34.266 43.002 33.678 43.446 33.174C43.902 32.67 44.496 32.286 45.228 32.022C45.972 31.746 46.776 31.614 47.64 31.626C48.528 31.65 49.362 31.83 50.142 32.166C50.934 32.502 51.6 32.994 52.14 33.642C52.692 34.278 53.064 35.052 53.256 35.964L57.918 35.154C57.534 33.558 56.874 32.196 55.938 31.068C55.002 29.94 53.838 29.082 52.446 28.494C51.054 27.894 49.47 27.588 47.694 27.576C45.942 27.564 44.346 27.84 42.906 28.404C41.478 28.968 40.338 29.82 39.486 30.96C38.646 32.088 38.226 33.486 38.226 35.154C38.226 36.294 38.412 37.254 38.784 38.034C39.168 38.802 39.654 39.438 40.242 39.942C40.842 40.434 41.472 40.824 42.132 41.112C42.804 41.388 43.428 41.61 44.004 41.778L50.7 43.758C51.18 43.902 51.6 44.076 51.96 44.28C52.332 44.472 52.632 44.688 52.86 44.928C53.1 45.168 53.28 45.444 53.4 45.756C53.52 46.056 53.58 46.386 53.58 46.746C53.58 47.55 53.322 48.228 52.806 48.78C52.302 49.332 51.642 49.752 50.826 50.04C50.01 50.328 49.14 50.472 48.216 50.472C46.656 50.472 45.276 50.052 44.076 49.212C42.888 48.372 42.102 47.184 41.718 45.648L37.218 46.332C37.482 48.024 38.1 49.488 39.072 50.724C40.056 51.948 41.304 52.89 42.816 53.55Z" fill="white"/>
</svg>
