<svg width="48" height="48" viewBox="0 0 48 48" fill="none" xmlns="http://www.w3.org/2000/svg">
<path d="M46.2857 6H1.71429C0.766071 6 0 6.73125 0 7.63636V40.3636C0 41.2687 0.766071 42 1.71429 42H46.2857C47.2339 42 48 41.2687 48 40.3636V7.63636C48 6.73125 47.2339 6 46.2857 6ZM41.9571 11.5687L25.0554 24.1227C24.6375 24.4347 24.0536 24.4347 23.6357 24.1227L6.72857 11.5687C6.66484 11.5218 6.61809 11.457 6.59488 11.3834C6.57168 11.3098 6.57317 11.2311 6.59916 11.1584C6.62515 11.0857 6.67433 11.0225 6.73981 10.9778C6.80529 10.9331 6.88378 10.9091 6.96429 10.9091H41.7214C41.8019 10.9091 41.8804 10.9331 41.9459 10.9778C42.0114 11.0225 42.0606 11.0857 42.0866 11.1584C42.1125 11.2311 42.114 11.3098 42.0908 11.3834C42.0676 11.457 42.0209 11.5218 41.9571 11.5687Z" fill="#F9F9F9"/>
</svg>
