<svg width="48" height="48" viewBox="0 0 48 48" fill="none" xmlns="http://www.w3.org/2000/svg">
<path fill-rule="evenodd" clip-rule="evenodd" d="M10.2422 7.14794C10.6359 6.75482 11.1086 6.44986 11.629 6.25327C12.1495 6.05668 12.7057 5.97296 13.261 6.00764C13.8162 6.04231 14.3578 6.19461 14.8497 6.45443C15.3417 6.71425 15.7728 7.07565 16.1145 7.5147L20.1531 12.7034C20.8933 13.6552 21.1543 14.895 20.8618 16.0651L19.6311 20.9928C19.5675 21.248 19.5709 21.5154 19.6411 21.7689C19.7113 22.0224 19.8458 22.2535 20.0316 22.4396L25.5597 27.9681C25.7461 28.1543 25.9775 28.2891 26.2314 28.3593C26.4853 28.4295 26.7531 28.4327 27.0087 28.3687L31.9337 27.1379C32.5111 26.9935 33.1137 26.9823 33.6961 27.1051C34.2784 27.2279 34.8252 27.4814 35.2951 27.8466L40.4835 31.8833C42.3487 33.3346 42.5197 36.091 40.8502 37.7583L38.5238 40.0849C36.8588 41.75 34.3704 42.4813 32.0507 41.6645C26.1136 39.5754 20.723 36.1762 16.2787 31.7191C11.8223 27.2751 8.42335 21.8849 6.33405 15.9481C5.51957 13.6305 6.2508 11.1396 7.91575 9.47454L10.2422 7.14794Z" fill="#F9F9F9"/>
</svg>
